<mxfile host="Electron" modified="2023-10-20T07:47:01.409Z" agent="Mozilla/5.0 (Macintosh; Intel Mac OS X 10_15_7) AppleWebKit/537.36 (KHTML, like Gecko) draw.io/21.6.8 Chrome/114.0.5735.289 Electron/25.5.0 Safari/537.36" etag="BMQl46zKCWjZpg9QS6BD" version="21.6.8" type="device">
  <diagram name="第 1 页" id="4botKnZPZgRAJB4ThrQ-">
    <mxGraphModel dx="2288" dy="1033" grid="1" gridSize="10" guides="1" tooltips="1" connect="1" arrows="1" fold="1" page="1" pageScale="1" pageWidth="827" pageHeight="1169" math="0" shadow="0">
      <root>
        <mxCell id="0" />
        <mxCell id="1" parent="0" />
        <mxCell id="ff8AUM6FAH6PXLrO94gb-1" value="systemd-logind" style="swimlane;whiteSpace=wrap;html=1;" parent="1" vertex="1">
          <mxGeometry x="-280" y="20" width="610" height="490" as="geometry" />
        </mxCell>
        <mxCell id="ff8AUM6FAH6PXLrO94gb-5" value="" style="edgeStyle=orthogonalEdgeStyle;rounded=0;orthogonalLoop=1;jettySize=auto;html=1;" parent="ff8AUM6FAH6PXLrO94gb-1" source="ff8AUM6FAH6PXLrO94gb-3" target="ff8AUM6FAH6PXLrO94gb-4" edge="1">
          <mxGeometry relative="1" as="geometry" />
        </mxCell>
        <mxCell id="ff8AUM6FAH6PXLrO94gb-3" value="run" style="rounded=0;whiteSpace=wrap;html=1;" parent="ff8AUM6FAH6PXLrO94gb-1" vertex="1">
          <mxGeometry x="70" y="30" width="40" height="20" as="geometry" />
        </mxCell>
        <mxCell id="ff8AUM6FAH6PXLrO94gb-7" value="" style="edgeStyle=orthogonalEdgeStyle;rounded=0;orthogonalLoop=1;jettySize=auto;html=1;" parent="ff8AUM6FAH6PXLrO94gb-1" source="ff8AUM6FAH6PXLrO94gb-4" target="ff8AUM6FAH6PXLrO94gb-6" edge="1">
          <mxGeometry relative="1" as="geometry" />
        </mxCell>
        <mxCell id="ff8AUM6FAH6PXLrO94gb-9" value="" style="edgeStyle=orthogonalEdgeStyle;rounded=0;orthogonalLoop=1;jettySize=auto;html=1;" parent="ff8AUM6FAH6PXLrO94gb-1" source="ff8AUM6FAH6PXLrO94gb-4" target="ff8AUM6FAH6PXLrO94gb-8" edge="1">
          <mxGeometry relative="1" as="geometry" />
        </mxCell>
        <mxCell id="ff8AUM6FAH6PXLrO94gb-4" value="manager_startup" style="rounded=0;whiteSpace=wrap;html=1;" parent="ff8AUM6FAH6PXLrO94gb-1" vertex="1">
          <mxGeometry x="40" y="70" width="100" height="20" as="geometry" />
        </mxCell>
        <mxCell id="fsKY5Mfq22CwUaqsBOQk-60" value="" style="edgeStyle=orthogonalEdgeStyle;rounded=0;orthogonalLoop=1;jettySize=auto;html=1;" edge="1" parent="ff8AUM6FAH6PXLrO94gb-1" source="ff8AUM6FAH6PXLrO94gb-6" target="ff8AUM6FAH6PXLrO94gb-86">
          <mxGeometry relative="1" as="geometry" />
        </mxCell>
        <mxCell id="ff8AUM6FAH6PXLrO94gb-6" value="manager_run" style="rounded=0;whiteSpace=wrap;html=1;" parent="ff8AUM6FAH6PXLrO94gb-1" vertex="1">
          <mxGeometry x="40" y="110" width="100" height="20" as="geometry" />
        </mxCell>
        <mxCell id="ff8AUM6FAH6PXLrO94gb-11" value="" style="edgeStyle=orthogonalEdgeStyle;rounded=0;orthogonalLoop=1;jettySize=auto;html=1;" parent="ff8AUM6FAH6PXLrO94gb-1" source="ff8AUM6FAH6PXLrO94gb-8" target="ff8AUM6FAH6PXLrO94gb-10" edge="1">
          <mxGeometry relative="1" as="geometry" />
        </mxCell>
        <mxCell id="ff8AUM6FAH6PXLrO94gb-8" value="manager_startup" style="rounded=0;whiteSpace=wrap;html=1;" parent="ff8AUM6FAH6PXLrO94gb-1" vertex="1">
          <mxGeometry x="247.5" y="60" width="100" height="20" as="geometry" />
        </mxCell>
        <mxCell id="ff8AUM6FAH6PXLrO94gb-13" value="" style="edgeStyle=orthogonalEdgeStyle;rounded=0;orthogonalLoop=1;jettySize=auto;html=1;" parent="ff8AUM6FAH6PXLrO94gb-1" source="ff8AUM6FAH6PXLrO94gb-10" target="ff8AUM6FAH6PXLrO94gb-12" edge="1">
          <mxGeometry relative="1" as="geometry" />
        </mxCell>
        <mxCell id="ff8AUM6FAH6PXLrO94gb-10" value="manager_connect_bus" style="rounded=0;whiteSpace=wrap;html=1;" parent="ff8AUM6FAH6PXLrO94gb-1" vertex="1">
          <mxGeometry x="232.5" y="100" width="130" height="20" as="geometry" />
        </mxCell>
        <mxCell id="ff8AUM6FAH6PXLrO94gb-92" style="edgeStyle=orthogonalEdgeStyle;rounded=0;orthogonalLoop=1;jettySize=auto;html=1;entryX=0.5;entryY=0;entryDx=0;entryDy=0;" parent="ff8AUM6FAH6PXLrO94gb-1" source="ff8AUM6FAH6PXLrO94gb-12" target="ff8AUM6FAH6PXLrO94gb-14" edge="1">
          <mxGeometry relative="1" as="geometry" />
        </mxCell>
        <mxCell id="ff8AUM6FAH6PXLrO94gb-12" value="sd_bus_default_system" style="rounded=0;whiteSpace=wrap;html=1;" parent="ff8AUM6FAH6PXLrO94gb-1" vertex="1">
          <mxGeometry x="232.5" y="140" width="130" height="20" as="geometry" />
        </mxCell>
        <mxCell id="fsKY5Mfq22CwUaqsBOQk-53" value="" style="edgeStyle=orthogonalEdgeStyle;rounded=0;orthogonalLoop=1;jettySize=auto;html=1;" edge="1" parent="ff8AUM6FAH6PXLrO94gb-1" source="ff8AUM6FAH6PXLrO94gb-14" target="fsKY5Mfq22CwUaqsBOQk-52">
          <mxGeometry relative="1" as="geometry" />
        </mxCell>
        <mxCell id="ff8AUM6FAH6PXLrO94gb-14" value="bus_match_signal_async:&lt;br&gt;JobRemove/UnitRemoved" style="rounded=0;whiteSpace=wrap;html=1;" parent="ff8AUM6FAH6PXLrO94gb-1" vertex="1">
          <mxGeometry x="220" y="185" width="155" height="40" as="geometry" />
        </mxCell>
        <mxCell id="ff8AUM6FAH6PXLrO94gb-36" value="" style="edgeStyle=orthogonalEdgeStyle;rounded=0;orthogonalLoop=1;jettySize=auto;html=1;" parent="ff8AUM6FAH6PXLrO94gb-1" source="ff8AUM6FAH6PXLrO94gb-34" target="ff8AUM6FAH6PXLrO94gb-35" edge="1">
          <mxGeometry relative="1" as="geometry" />
        </mxCell>
        <mxCell id="ff8AUM6FAH6PXLrO94gb-34" value="method_create_session" style="rounded=0;whiteSpace=wrap;html=1;" parent="ff8AUM6FAH6PXLrO94gb-1" vertex="1">
          <mxGeometry x="420" y="50" width="140" height="30" as="geometry" />
        </mxCell>
        <mxCell id="ff8AUM6FAH6PXLrO94gb-40" style="edgeStyle=orthogonalEdgeStyle;rounded=0;orthogonalLoop=1;jettySize=auto;html=1;" parent="ff8AUM6FAH6PXLrO94gb-1" source="ff8AUM6FAH6PXLrO94gb-35" target="ff8AUM6FAH6PXLrO94gb-38" edge="1">
          <mxGeometry relative="1" as="geometry" />
        </mxCell>
        <mxCell id="ff8AUM6FAH6PXLrO94gb-35" value="session_start" style="rounded=0;whiteSpace=wrap;html=1;" parent="ff8AUM6FAH6PXLrO94gb-1" vertex="1">
          <mxGeometry x="420" y="100" width="140" height="30" as="geometry" />
        </mxCell>
        <mxCell id="ff8AUM6FAH6PXLrO94gb-42" value="" style="edgeStyle=orthogonalEdgeStyle;rounded=0;orthogonalLoop=1;jettySize=auto;html=1;" parent="ff8AUM6FAH6PXLrO94gb-1" source="ff8AUM6FAH6PXLrO94gb-38" target="ff8AUM6FAH6PXLrO94gb-41" edge="1">
          <mxGeometry relative="1" as="geometry" />
        </mxCell>
        <mxCell id="ff8AUM6FAH6PXLrO94gb-38" value="user_start:user@.service" style="rounded=0;whiteSpace=wrap;html=1;" parent="ff8AUM6FAH6PXLrO94gb-1" vertex="1">
          <mxGeometry x="420" y="150" width="140" height="30" as="geometry" />
        </mxCell>
        <mxCell id="ff8AUM6FAH6PXLrO94gb-41" value="session_start_scope" style="rounded=0;whiteSpace=wrap;html=1;" parent="ff8AUM6FAH6PXLrO94gb-1" vertex="1">
          <mxGeometry x="420" y="200" width="140" height="30" as="geometry" />
        </mxCell>
        <mxCell id="fsKY5Mfq22CwUaqsBOQk-62" value="" style="edgeStyle=orthogonalEdgeStyle;rounded=0;orthogonalLoop=1;jettySize=auto;html=1;" edge="1" parent="ff8AUM6FAH6PXLrO94gb-1" source="ff8AUM6FAH6PXLrO94gb-86" target="fsKY5Mfq22CwUaqsBOQk-61">
          <mxGeometry relative="1" as="geometry" />
        </mxCell>
        <mxCell id="ff8AUM6FAH6PXLrO94gb-86" value="manager_run进行gc回收" style="rounded=0;whiteSpace=wrap;html=1;" parent="ff8AUM6FAH6PXLrO94gb-1" vertex="1">
          <mxGeometry x="13.75" y="150" width="152.5" height="30" as="geometry" />
        </mxCell>
        <mxCell id="fsKY5Mfq22CwUaqsBOQk-55" value="" style="edgeStyle=orthogonalEdgeStyle;rounded=0;orthogonalLoop=1;jettySize=auto;html=1;" edge="1" parent="ff8AUM6FAH6PXLrO94gb-1" source="fsKY5Mfq22CwUaqsBOQk-52" target="fsKY5Mfq22CwUaqsBOQk-54">
          <mxGeometry relative="1" as="geometry" />
        </mxCell>
        <mxCell id="fsKY5Mfq22CwUaqsBOQk-52" value="match_unit/job_removed" style="rounded=0;whiteSpace=wrap;html=1;" vertex="1" parent="ff8AUM6FAH6PXLrO94gb-1">
          <mxGeometry x="220" y="255" width="155" height="25" as="geometry" />
        </mxCell>
        <mxCell id="fsKY5Mfq22CwUaqsBOQk-54" value="session/user_add_to_gc_queue" style="rounded=0;whiteSpace=wrap;html=1;" vertex="1" parent="ff8AUM6FAH6PXLrO94gb-1">
          <mxGeometry x="220" y="300" width="155" height="25" as="geometry" />
        </mxCell>
        <mxCell id="fsKY5Mfq22CwUaqsBOQk-64" value="" style="edgeStyle=orthogonalEdgeStyle;rounded=0;orthogonalLoop=1;jettySize=auto;html=1;" edge="1" parent="ff8AUM6FAH6PXLrO94gb-1" source="fsKY5Mfq22CwUaqsBOQk-61" target="fsKY5Mfq22CwUaqsBOQk-63">
          <mxGeometry relative="1" as="geometry" />
        </mxCell>
        <mxCell id="fsKY5Mfq22CwUaqsBOQk-61" value="manager_gc" style="rounded=0;whiteSpace=wrap;html=1;" vertex="1" parent="ff8AUM6FAH6PXLrO94gb-1">
          <mxGeometry x="46.88" y="200" width="86.25" height="20" as="geometry" />
        </mxCell>
        <mxCell id="fsKY5Mfq22CwUaqsBOQk-91" style="edgeStyle=orthogonalEdgeStyle;rounded=0;orthogonalLoop=1;jettySize=auto;html=1;entryX=0.5;entryY=0;entryDx=0;entryDy=0;" edge="1" parent="ff8AUM6FAH6PXLrO94gb-1" source="fsKY5Mfq22CwUaqsBOQk-63" target="fsKY5Mfq22CwUaqsBOQk-68">
          <mxGeometry relative="1" as="geometry" />
        </mxCell>
        <mxCell id="fsKY5Mfq22CwUaqsBOQk-63" value="session/user_may_gc" style="rounded=0;whiteSpace=wrap;html=1;" vertex="1" parent="ff8AUM6FAH6PXLrO94gb-1">
          <mxGeometry x="28.44" y="240" width="123.12" height="20" as="geometry" />
        </mxCell>
        <mxCell id="fsKY5Mfq22CwUaqsBOQk-69" value="session/user_stop" style="rounded=0;whiteSpace=wrap;html=1;" vertex="1" parent="ff8AUM6FAH6PXLrO94gb-1">
          <mxGeometry x="28.439999999999998" y="460" width="123.12" height="20" as="geometry" />
        </mxCell>
        <mxCell id="fsKY5Mfq22CwUaqsBOQk-75" style="edgeStyle=orthogonalEdgeStyle;rounded=0;orthogonalLoop=1;jettySize=auto;html=1;entryX=0.5;entryY=0;entryDx=0;entryDy=0;" edge="1" parent="ff8AUM6FAH6PXLrO94gb-1" source="fsKY5Mfq22CwUaqsBOQk-68" target="fsKY5Mfq22CwUaqsBOQk-69">
          <mxGeometry relative="1" as="geometry" />
        </mxCell>
        <mxCell id="fsKY5Mfq22CwUaqsBOQk-68" value="1.logind GC机制关闭&lt;br&gt;2.通过api关闭&lt;br&gt;3.session FIFO读端接收到EOF。这是logind的监控。如果没有进程持有写端，那么读端就会接收到EOF，这是FIFO管道机制&lt;br&gt;4.method_release_session超时(pam_sm_close_session)" style="whiteSpace=wrap;html=1;aspect=fixed;" vertex="1" parent="ff8AUM6FAH6PXLrO94gb-1">
          <mxGeometry x="15" y="290" width="150" height="150" as="geometry" />
        </mxCell>
        <mxCell id="ff8AUM6FAH6PXLrO94gb-2" value="systemd" style="swimlane;whiteSpace=wrap;html=1;" parent="1" vertex="1">
          <mxGeometry x="490" y="20" width="900" height="520" as="geometry" />
        </mxCell>
        <mxCell id="ff8AUM6FAH6PXLrO94gb-60" value="" style="edgeStyle=orthogonalEdgeStyle;rounded=0;orthogonalLoop=1;jettySize=auto;html=1;" parent="ff8AUM6FAH6PXLrO94gb-2" source="ff8AUM6FAH6PXLrO94gb-57" target="ff8AUM6FAH6PXLrO94gb-59" edge="1">
          <mxGeometry relative="1" as="geometry" />
        </mxCell>
        <mxCell id="ff8AUM6FAH6PXLrO94gb-57" value="job事件处理" style="rounded=0;whiteSpace=wrap;html=1;" parent="ff8AUM6FAH6PXLrO94gb-2" vertex="1">
          <mxGeometry x="20" y="30" width="120" height="30" as="geometry" />
        </mxCell>
        <mxCell id="fsKY5Mfq22CwUaqsBOQk-14" value="" style="edgeStyle=orthogonalEdgeStyle;rounded=0;orthogonalLoop=1;jettySize=auto;html=1;" edge="1" parent="ff8AUM6FAH6PXLrO94gb-2" source="ff8AUM6FAH6PXLrO94gb-59" target="fsKY5Mfq22CwUaqsBOQk-13">
          <mxGeometry relative="1" as="geometry" />
        </mxCell>
        <mxCell id="ff8AUM6FAH6PXLrO94gb-59" value="创建成功" style="rounded=0;whiteSpace=wrap;html=1;" parent="ff8AUM6FAH6PXLrO94gb-2" vertex="1">
          <mxGeometry x="20" y="80" width="120" height="30" as="geometry" />
        </mxCell>
        <mxCell id="ff8AUM6FAH6PXLrO94gb-64" value="" style="edgeStyle=orthogonalEdgeStyle;rounded=0;orthogonalLoop=1;jettySize=auto;html=1;" parent="ff8AUM6FAH6PXLrO94gb-2" source="ff8AUM6FAH6PXLrO94gb-61" target="ff8AUM6FAH6PXLrO94gb-63" edge="1">
          <mxGeometry relative="1" as="geometry" />
        </mxCell>
        <mxCell id="ff8AUM6FAH6PXLrO94gb-61" value="job_uninstall" style="rounded=0;whiteSpace=wrap;html=1;" parent="ff8AUM6FAH6PXLrO94gb-2" vertex="1">
          <mxGeometry x="625" y="240" width="70" height="20" as="geometry" />
        </mxCell>
        <mxCell id="ff8AUM6FAH6PXLrO94gb-66" value="" style="edgeStyle=orthogonalEdgeStyle;rounded=0;orthogonalLoop=1;jettySize=auto;html=1;" parent="ff8AUM6FAH6PXLrO94gb-2" source="ff8AUM6FAH6PXLrO94gb-62" target="ff8AUM6FAH6PXLrO94gb-65" edge="1">
          <mxGeometry relative="1" as="geometry" />
        </mxCell>
        <mxCell id="ff8AUM6FAH6PXLrO94gb-62" value="unit_free" style="rounded=0;whiteSpace=wrap;html=1;" parent="ff8AUM6FAH6PXLrO94gb-2" vertex="1">
          <mxGeometry x="772.5" y="240" width="50" height="20" as="geometry" />
        </mxCell>
        <mxCell id="ff8AUM6FAH6PXLrO94gb-68" value="" style="edgeStyle=orthogonalEdgeStyle;rounded=0;orthogonalLoop=1;jettySize=auto;html=1;" parent="ff8AUM6FAH6PXLrO94gb-2" source="ff8AUM6FAH6PXLrO94gb-63" target="ff8AUM6FAH6PXLrO94gb-67" edge="1">
          <mxGeometry relative="1" as="geometry" />
        </mxCell>
        <mxCell id="ff8AUM6FAH6PXLrO94gb-63" value="bus_job_send_&lt;br&gt;removed_signal" style="rounded=0;whiteSpace=wrap;html=1;" parent="ff8AUM6FAH6PXLrO94gb-2" vertex="1">
          <mxGeometry x="610" y="280" width="100" height="30" as="geometry" />
        </mxCell>
        <mxCell id="ff8AUM6FAH6PXLrO94gb-75" style="edgeStyle=orthogonalEdgeStyle;rounded=0;orthogonalLoop=1;jettySize=auto;html=1;entryX=0.5;entryY=0;entryDx=0;entryDy=0;" parent="ff8AUM6FAH6PXLrO94gb-2" source="ff8AUM6FAH6PXLrO94gb-65" target="ff8AUM6FAH6PXLrO94gb-67" edge="1">
          <mxGeometry relative="1" as="geometry" />
        </mxCell>
        <mxCell id="ff8AUM6FAH6PXLrO94gb-65" value="bus_job_send_&lt;br&gt;removed_signal" style="rounded=0;whiteSpace=wrap;html=1;" parent="ff8AUM6FAH6PXLrO94gb-2" vertex="1">
          <mxGeometry x="752.5" y="282.5" width="90" height="25" as="geometry" />
        </mxCell>
        <mxCell id="ff8AUM6FAH6PXLrO94gb-71" value="" style="edgeStyle=orthogonalEdgeStyle;rounded=0;orthogonalLoop=1;jettySize=auto;html=1;" parent="ff8AUM6FAH6PXLrO94gb-2" source="ff8AUM6FAH6PXLrO94gb-67" target="ff8AUM6FAH6PXLrO94gb-70" edge="1">
          <mxGeometry relative="1" as="geometry" />
        </mxCell>
        <mxCell id="ff8AUM6FAH6PXLrO94gb-67" value="bus_foreach_bus:(send_removed_signale),发送JobRemoved或者UnitRemoved信号" style="rounded=0;whiteSpace=wrap;html=1;" parent="ff8AUM6FAH6PXLrO94gb-2" vertex="1">
          <mxGeometry x="602.5" y="350" width="270" height="30" as="geometry" />
        </mxCell>
        <mxCell id="ff8AUM6FAH6PXLrO94gb-70" value="sd_bus_track_count(m-&amp;gt;subscribed):判断是否有订阅者，session残留典型问题是因为systemd重连dbus，导致这个subscribe为0，所以Remove相关信号没有发送出去，导致session没有清理。正常情况下通过send_removed_signal发送JobRemoved或UnitRemoved信号。logind接受信号后处理" style="rounded=0;whiteSpace=wrap;html=1;" parent="ff8AUM6FAH6PXLrO94gb-2" vertex="1">
          <mxGeometry x="592.5" y="400" width="290" height="90" as="geometry" />
        </mxCell>
        <mxCell id="ff8AUM6FAH6PXLrO94gb-78" style="edgeStyle=orthogonalEdgeStyle;rounded=0;orthogonalLoop=1;jettySize=auto;html=1;entryX=0;entryY=0.5;entryDx=0;entryDy=0;" parent="ff8AUM6FAH6PXLrO94gb-2" source="ff8AUM6FAH6PXLrO94gb-76" target="ff8AUM6FAH6PXLrO94gb-62" edge="1">
          <mxGeometry relative="1" as="geometry" />
        </mxCell>
        <mxCell id="ff8AUM6FAH6PXLrO94gb-76" value="session-xx.scope底下无进程，回收" style="rounded=0;whiteSpace=wrap;html=1;" parent="ff8AUM6FAH6PXLrO94gb-2" vertex="1">
          <mxGeometry x="665" y="200" width="120" height="30" as="geometry" />
        </mxCell>
        <mxCell id="fsKY5Mfq22CwUaqsBOQk-4" style="edgeStyle=orthogonalEdgeStyle;rounded=0;orthogonalLoop=1;jettySize=auto;html=1;entryX=1;entryY=0.5;entryDx=0;entryDy=0;" edge="1" parent="ff8AUM6FAH6PXLrO94gb-2" source="fsKY5Mfq22CwUaqsBOQk-1" target="ff8AUM6FAH6PXLrO94gb-57">
          <mxGeometry relative="1" as="geometry" />
        </mxCell>
        <mxCell id="fsKY5Mfq22CwUaqsBOQk-6" value="" style="edgeStyle=orthogonalEdgeStyle;rounded=0;orthogonalLoop=1;jettySize=auto;html=1;" edge="1" parent="ff8AUM6FAH6PXLrO94gb-2" source="fsKY5Mfq22CwUaqsBOQk-1" target="fsKY5Mfq22CwUaqsBOQk-5">
          <mxGeometry relative="1" as="geometry" />
        </mxCell>
        <mxCell id="fsKY5Mfq22CwUaqsBOQk-1" value="manager_new:主流程" style="whiteSpace=wrap;html=1;" vertex="1" parent="ff8AUM6FAH6PXLrO94gb-2">
          <mxGeometry x="270" y="35" width="155" height="20" as="geometry" />
        </mxCell>
        <mxCell id="fsKY5Mfq22CwUaqsBOQk-8" value="" style="edgeStyle=orthogonalEdgeStyle;rounded=0;orthogonalLoop=1;jettySize=auto;html=1;" edge="1" parent="ff8AUM6FAH6PXLrO94gb-2" source="fsKY5Mfq22CwUaqsBOQk-5" target="fsKY5Mfq22CwUaqsBOQk-7">
          <mxGeometry relative="1" as="geometry" />
        </mxCell>
        <mxCell id="fsKY5Mfq22CwUaqsBOQk-5" value="manager_setup_cgroup" style="whiteSpace=wrap;html=1;" vertex="1" parent="ff8AUM6FAH6PXLrO94gb-2">
          <mxGeometry x="270" y="70" width="155" height="20" as="geometry" />
        </mxCell>
        <mxCell id="fsKY5Mfq22CwUaqsBOQk-11" value="" style="edgeStyle=orthogonalEdgeStyle;rounded=0;orthogonalLoop=1;jettySize=auto;html=1;" edge="1" parent="ff8AUM6FAH6PXLrO94gb-2" source="fsKY5Mfq22CwUaqsBOQk-7" target="fsKY5Mfq22CwUaqsBOQk-10">
          <mxGeometry relative="1" as="geometry" />
        </mxCell>
        <mxCell id="fsKY5Mfq22CwUaqsBOQk-7" value="&lt;div style=&quot;font-family: Menlo, Monaco, &amp;quot;Courier New&amp;quot;, monospace; line-height: 18px;&quot;&gt;注册函数监控空cgroup组：on_cgroup_empty_event&lt;/div&gt;" style="whiteSpace=wrap;html=1;labelBackgroundColor=default;fontColor=#1F1F1F;" vertex="1" parent="ff8AUM6FAH6PXLrO94gb-2">
          <mxGeometry x="270" y="110" width="155" height="40" as="geometry" />
        </mxCell>
        <mxCell id="fsKY5Mfq22CwUaqsBOQk-32" style="edgeStyle=orthogonalEdgeStyle;rounded=0;orthogonalLoop=1;jettySize=auto;html=1;entryX=0.5;entryY=0;entryDx=0;entryDy=0;" edge="1" parent="ff8AUM6FAH6PXLrO94gb-2" source="fsKY5Mfq22CwUaqsBOQk-10" target="fsKY5Mfq22CwUaqsBOQk-30">
          <mxGeometry relative="1" as="geometry" />
        </mxCell>
        <mxCell id="fsKY5Mfq22CwUaqsBOQk-40" value="" style="edgeStyle=orthogonalEdgeStyle;rounded=0;orthogonalLoop=1;jettySize=auto;html=1;" edge="1" parent="ff8AUM6FAH6PXLrO94gb-2" source="fsKY5Mfq22CwUaqsBOQk-10" target="fsKY5Mfq22CwUaqsBOQk-39">
          <mxGeometry relative="1" as="geometry">
            <Array as="points">
              <mxPoint x="460" y="185" />
              <mxPoint x="460" y="45" />
            </Array>
          </mxGeometry>
        </mxCell>
        <mxCell id="fsKY5Mfq22CwUaqsBOQk-10" value="&lt;div style=&quot;font-family: Menlo, Monaco, &amp;quot;Courier New&amp;quot;, monospace; line-height: 18px;&quot;&gt;unit_add_to_gc_queue&lt;/div&gt;" style="whiteSpace=wrap;html=1;labelBackgroundColor=default;fontColor=#1F1F1F;" vertex="1" parent="ff8AUM6FAH6PXLrO94gb-2">
          <mxGeometry x="270" y="170" width="155" height="30" as="geometry" />
        </mxCell>
        <mxCell id="fsKY5Mfq22CwUaqsBOQk-18" value="" style="edgeStyle=orthogonalEdgeStyle;rounded=0;orthogonalLoop=1;jettySize=auto;html=1;" edge="1" parent="ff8AUM6FAH6PXLrO94gb-2" source="fsKY5Mfq22CwUaqsBOQk-13" target="fsKY5Mfq22CwUaqsBOQk-17">
          <mxGeometry relative="1" as="geometry" />
        </mxCell>
        <mxCell id="fsKY5Mfq22CwUaqsBOQk-13" value="unit_enqueue_rewatch_pids监控scope下面的进程" style="rounded=0;whiteSpace=wrap;html=1;" vertex="1" parent="ff8AUM6FAH6PXLrO94gb-2">
          <mxGeometry x="20" y="130" width="120" height="30" as="geometry" />
        </mxCell>
        <mxCell id="fsKY5Mfq22CwUaqsBOQk-20" value="" style="edgeStyle=orthogonalEdgeStyle;rounded=0;orthogonalLoop=1;jettySize=auto;html=1;" edge="1" parent="ff8AUM6FAH6PXLrO94gb-2" source="fsKY5Mfq22CwUaqsBOQk-17" target="fsKY5Mfq22CwUaqsBOQk-19">
          <mxGeometry relative="1" as="geometry" />
        </mxCell>
        <mxCell id="fsKY5Mfq22CwUaqsBOQk-17" value="on_rewatch_pids_event" style="rounded=0;whiteSpace=wrap;html=1;" vertex="1" parent="ff8AUM6FAH6PXLrO94gb-2">
          <mxGeometry x="20" y="180" width="120" height="20" as="geometry" />
        </mxCell>
        <mxCell id="fsKY5Mfq22CwUaqsBOQk-22" value="" style="edgeStyle=orthogonalEdgeStyle;rounded=0;orthogonalLoop=1;jettySize=auto;html=1;" edge="1" parent="ff8AUM6FAH6PXLrO94gb-2" source="fsKY5Mfq22CwUaqsBOQk-19" target="fsKY5Mfq22CwUaqsBOQk-21">
          <mxGeometry relative="1" as="geometry">
            <Array as="points">
              <mxPoint x="80" y="260" />
              <mxPoint x="115" y="260" />
            </Array>
          </mxGeometry>
        </mxCell>
        <mxCell id="fsKY5Mfq22CwUaqsBOQk-19" value="unit_watch_all_pids增加对所有进程的监控" style="rounded=0;whiteSpace=wrap;html=1;" vertex="1" parent="ff8AUM6FAH6PXLrO94gb-2">
          <mxGeometry x="20" y="220" width="120" height="30" as="geometry" />
        </mxCell>
        <mxCell id="fsKY5Mfq22CwUaqsBOQk-24" value="" style="edgeStyle=orthogonalEdgeStyle;rounded=0;orthogonalLoop=1;jettySize=auto;html=1;" edge="1" parent="ff8AUM6FAH6PXLrO94gb-2" source="fsKY5Mfq22CwUaqsBOQk-21" target="fsKY5Mfq22CwUaqsBOQk-23">
          <mxGeometry relative="1" as="geometry" />
        </mxCell>
        <mxCell id="fsKY5Mfq22CwUaqsBOQk-21" value="unit_synthesize_cgroup_empty_event" style="rounded=0;whiteSpace=wrap;html=1;" vertex="1" parent="ff8AUM6FAH6PXLrO94gb-2">
          <mxGeometry x="2.5" y="270" width="210" height="20" as="geometry" />
        </mxCell>
        <mxCell id="fsKY5Mfq22CwUaqsBOQk-26" value="" style="edgeStyle=orthogonalEdgeStyle;rounded=0;orthogonalLoop=1;jettySize=auto;html=1;" edge="1" parent="ff8AUM6FAH6PXLrO94gb-2" source="fsKY5Mfq22CwUaqsBOQk-23" target="fsKY5Mfq22CwUaqsBOQk-25">
          <mxGeometry relative="1" as="geometry" />
        </mxCell>
        <mxCell id="fsKY5Mfq22CwUaqsBOQk-23" value="unit_add_to_cgroup_empty_queue" style="rounded=0;whiteSpace=wrap;html=1;" vertex="1" parent="ff8AUM6FAH6PXLrO94gb-2">
          <mxGeometry x="10" y="310" width="210" height="20" as="geometry" />
        </mxCell>
        <mxCell id="fsKY5Mfq22CwUaqsBOQk-27" style="edgeStyle=orthogonalEdgeStyle;rounded=0;orthogonalLoop=1;jettySize=auto;html=1;entryX=0;entryY=0.5;entryDx=0;entryDy=0;" edge="1" parent="ff8AUM6FAH6PXLrO94gb-2" source="fsKY5Mfq22CwUaqsBOQk-25" target="fsKY5Mfq22CwUaqsBOQk-7">
          <mxGeometry relative="1" as="geometry">
            <Array as="points">
              <mxPoint x="240" y="365" />
              <mxPoint x="240" y="130" />
            </Array>
          </mxGeometry>
        </mxCell>
        <mxCell id="fsKY5Mfq22CwUaqsBOQk-25" value="sd_event_source_set_enabled&lt;br&gt;(cgroup_empty_event_source)" style="rounded=0;whiteSpace=wrap;html=1;" vertex="1" parent="ff8AUM6FAH6PXLrO94gb-2">
          <mxGeometry x="25" y="350" width="180" height="30" as="geometry" />
        </mxCell>
        <mxCell id="fsKY5Mfq22CwUaqsBOQk-36" value="" style="edgeStyle=orthogonalEdgeStyle;rounded=0;orthogonalLoop=1;jettySize=auto;html=1;" edge="1" parent="ff8AUM6FAH6PXLrO94gb-2" source="fsKY5Mfq22CwUaqsBOQk-30" target="fsKY5Mfq22CwUaqsBOQk-34">
          <mxGeometry relative="1" as="geometry" />
        </mxCell>
        <mxCell id="fsKY5Mfq22CwUaqsBOQk-30" value="&lt;div style=&quot;font-family: Menlo, Monaco, &amp;quot;Courier New&amp;quot;, monospace; line-height: 18px;&quot;&gt;scope_notify_cgroup_empty&lt;/div&gt;" style="whiteSpace=wrap;html=1;labelBackgroundColor=default;fontColor=#1F1F1F;" vertex="1" parent="ff8AUM6FAH6PXLrO94gb-2">
          <mxGeometry x="252.5" y="220" width="190" height="30" as="geometry" />
        </mxCell>
        <mxCell id="fsKY5Mfq22CwUaqsBOQk-38" value="" style="edgeStyle=orthogonalEdgeStyle;rounded=0;orthogonalLoop=1;jettySize=auto;html=1;" edge="1" parent="ff8AUM6FAH6PXLrO94gb-2" source="fsKY5Mfq22CwUaqsBOQk-34" target="fsKY5Mfq22CwUaqsBOQk-37">
          <mxGeometry relative="1" as="geometry" />
        </mxCell>
        <mxCell id="fsKY5Mfq22CwUaqsBOQk-34" value="&lt;div style=&quot;font-family: Menlo, Monaco, &amp;quot;Courier New&amp;quot;, monospace; line-height: 18px;&quot;&gt;scope_enter_dead&lt;/div&gt;" style="whiteSpace=wrap;html=1;labelBackgroundColor=default;fontColor=#1F1F1F;" vertex="1" parent="ff8AUM6FAH6PXLrO94gb-2">
          <mxGeometry x="283.75" y="265" width="127.5" height="30" as="geometry" />
        </mxCell>
        <mxCell id="fsKY5Mfq22CwUaqsBOQk-37" value="&lt;div style=&quot;font-family: Menlo, Monaco, &amp;quot;Courier New&amp;quot;, monospace; line-height: 18px;&quot;&gt;scope_set_state:dead&lt;/div&gt;" style="whiteSpace=wrap;html=1;labelBackgroundColor=default;fontColor=#1F1F1F;" vertex="1" parent="ff8AUM6FAH6PXLrO94gb-2">
          <mxGeometry x="269.38" y="320" width="156.25" height="30" as="geometry" />
        </mxCell>
        <mxCell id="fsKY5Mfq22CwUaqsBOQk-42" value="" style="edgeStyle=orthogonalEdgeStyle;rounded=0;orthogonalLoop=1;jettySize=auto;html=1;" edge="1" parent="ff8AUM6FAH6PXLrO94gb-2" source="fsKY5Mfq22CwUaqsBOQk-39" target="fsKY5Mfq22CwUaqsBOQk-41">
          <mxGeometry relative="1" as="geometry" />
        </mxCell>
        <mxCell id="fsKY5Mfq22CwUaqsBOQk-47" style="edgeStyle=orthogonalEdgeStyle;rounded=0;orthogonalLoop=1;jettySize=auto;html=1;entryX=0.5;entryY=0;entryDx=0;entryDy=0;" edge="1" parent="ff8AUM6FAH6PXLrO94gb-2" source="fsKY5Mfq22CwUaqsBOQk-39" target="fsKY5Mfq22CwUaqsBOQk-45">
          <mxGeometry relative="1" as="geometry" />
        </mxCell>
        <mxCell id="fsKY5Mfq22CwUaqsBOQk-39" value="&lt;div style=&quot;font-family: Menlo, Monaco, &amp;quot;Courier New&amp;quot;, monospace; line-height: 18px;&quot;&gt;manager_loop&lt;/div&gt;" style="whiteSpace=wrap;html=1;labelBackgroundColor=default;fontColor=#1F1F1F;" vertex="1" parent="ff8AUM6FAH6PXLrO94gb-2">
          <mxGeometry x="470" y="30" width="155" height="30" as="geometry" />
        </mxCell>
        <mxCell id="fsKY5Mfq22CwUaqsBOQk-44" value="" style="edgeStyle=orthogonalEdgeStyle;rounded=0;orthogonalLoop=1;jettySize=auto;html=1;" edge="1" parent="ff8AUM6FAH6PXLrO94gb-2" source="fsKY5Mfq22CwUaqsBOQk-41" target="fsKY5Mfq22CwUaqsBOQk-43">
          <mxGeometry relative="1" as="geometry" />
        </mxCell>
        <mxCell id="fsKY5Mfq22CwUaqsBOQk-41" value="&lt;div style=&quot;font-family: Menlo, Monaco, &amp;quot;Courier New&amp;quot;, monospace; line-height: 18px;&quot;&gt;manager_dispatch_gc&lt;/div&gt;&lt;div style=&quot;font-family: Menlo, Monaco, &amp;quot;Courier New&amp;quot;, monospace; line-height: 18px;&quot;&gt;_unit_queue&lt;/div&gt;" style="whiteSpace=wrap;html=1;labelBackgroundColor=default;fontColor=#1F1F1F;" vertex="1" parent="ff8AUM6FAH6PXLrO94gb-2">
          <mxGeometry x="470" y="80" width="155" height="40" as="geometry" />
        </mxCell>
        <mxCell id="fsKY5Mfq22CwUaqsBOQk-48" style="edgeStyle=orthogonalEdgeStyle;rounded=0;orthogonalLoop=1;jettySize=auto;html=1;entryX=0;entryY=0.5;entryDx=0;entryDy=0;" edge="1" parent="ff8AUM6FAH6PXLrO94gb-2" source="fsKY5Mfq22CwUaqsBOQk-43" target="fsKY5Mfq22CwUaqsBOQk-45">
          <mxGeometry relative="1" as="geometry" />
        </mxCell>
        <mxCell id="fsKY5Mfq22CwUaqsBOQk-43" value="&lt;div style=&quot;line-height: 18px;&quot;&gt;&lt;font face=&quot;Menlo, Monaco, Courier New, monospace&quot;&gt;unit_add_to_&lt;/font&gt;&lt;/div&gt;&lt;div style=&quot;line-height: 18px;&quot;&gt;&lt;font face=&quot;Menlo, Monaco, Courier New, monospace&quot;&gt;cleanup_queue&lt;/font&gt;&lt;br&gt;&lt;/div&gt;" style="whiteSpace=wrap;html=1;labelBackgroundColor=default;fontColor=#1F1F1F;" vertex="1" parent="ff8AUM6FAH6PXLrO94gb-2">
          <mxGeometry x="470" y="140" width="155" height="40" as="geometry" />
        </mxCell>
        <mxCell id="fsKY5Mfq22CwUaqsBOQk-49" style="edgeStyle=orthogonalEdgeStyle;rounded=0;orthogonalLoop=1;jettySize=auto;html=1;entryX=0.5;entryY=0;entryDx=0;entryDy=0;" edge="1" parent="ff8AUM6FAH6PXLrO94gb-2" source="fsKY5Mfq22CwUaqsBOQk-45" target="ff8AUM6FAH6PXLrO94gb-62">
          <mxGeometry relative="1" as="geometry" />
        </mxCell>
        <mxCell id="fsKY5Mfq22CwUaqsBOQk-45" value="&lt;div style=&quot;line-height: 18px;&quot;&gt;&lt;font face=&quot;Menlo, Monaco, Courier New, monospace&quot;&gt;manager_dispatch_&lt;/font&gt;&lt;/div&gt;&lt;div style=&quot;line-height: 18px;&quot;&gt;&lt;font face=&quot;Menlo, Monaco, Courier New, monospace&quot;&gt;cleanup_queue&lt;/font&gt;&lt;br&gt;&lt;/div&gt;" style="whiteSpace=wrap;html=1;labelBackgroundColor=default;fontColor=#1F1F1F;" vertex="1" parent="ff8AUM6FAH6PXLrO94gb-2">
          <mxGeometry x="660" y="80" width="155" height="40" as="geometry" />
        </mxCell>
        <mxCell id="ff8AUM6FAH6PXLrO94gb-16" value="systemd_pam" style="swimlane;whiteSpace=wrap;html=1;" parent="1" vertex="1">
          <mxGeometry x="-190" y="530" width="390" height="280" as="geometry" />
        </mxCell>
        <mxCell id="ff8AUM6FAH6PXLrO94gb-29" value="" style="edgeStyle=orthogonalEdgeStyle;rounded=0;orthogonalLoop=1;jettySize=auto;html=1;" parent="ff8AUM6FAH6PXLrO94gb-16" source="ff8AUM6FAH6PXLrO94gb-18" target="ff8AUM6FAH6PXLrO94gb-28" edge="1">
          <mxGeometry relative="1" as="geometry" />
        </mxCell>
        <mxCell id="ff8AUM6FAH6PXLrO94gb-18" value="pam_systemd.so" style="rounded=0;whiteSpace=wrap;html=1;" parent="ff8AUM6FAH6PXLrO94gb-16" vertex="1">
          <mxGeometry x="43.75" y="110" width="92.5" height="20" as="geometry" />
        </mxCell>
        <mxCell id="ff8AUM6FAH6PXLrO94gb-26" style="edgeStyle=orthogonalEdgeStyle;rounded=0;orthogonalLoop=1;jettySize=auto;html=1;entryX=0.5;entryY=0;entryDx=0;entryDy=0;" parent="ff8AUM6FAH6PXLrO94gb-16" source="ff8AUM6FAH6PXLrO94gb-19" target="ff8AUM6FAH6PXLrO94gb-22" edge="1">
          <mxGeometry relative="1" as="geometry" />
        </mxCell>
        <mxCell id="ff8AUM6FAH6PXLrO94gb-19" value="/etc/pam.d/sshd" style="rounded=0;whiteSpace=wrap;html=1;" parent="ff8AUM6FAH6PXLrO94gb-16" vertex="1">
          <mxGeometry x="37.5" y="30" width="105" height="20" as="geometry" />
        </mxCell>
        <mxCell id="ff8AUM6FAH6PXLrO94gb-27" value="" style="edgeStyle=orthogonalEdgeStyle;rounded=0;orthogonalLoop=1;jettySize=auto;html=1;" parent="ff8AUM6FAH6PXLrO94gb-16" source="ff8AUM6FAH6PXLrO94gb-22" target="ff8AUM6FAH6PXLrO94gb-18" edge="1">
          <mxGeometry relative="1" as="geometry" />
        </mxCell>
        <mxCell id="ff8AUM6FAH6PXLrO94gb-22" value="password-auth" style="rounded=0;whiteSpace=wrap;html=1;" parent="ff8AUM6FAH6PXLrO94gb-16" vertex="1">
          <mxGeometry x="40" y="70" width="100" height="20" as="geometry" />
        </mxCell>
        <mxCell id="ff8AUM6FAH6PXLrO94gb-31" value="" style="edgeStyle=orthogonalEdgeStyle;rounded=0;orthogonalLoop=1;jettySize=auto;html=1;" parent="ff8AUM6FAH6PXLrO94gb-16" source="ff8AUM6FAH6PXLrO94gb-28" target="ff8AUM6FAH6PXLrO94gb-30" edge="1">
          <mxGeometry relative="1" as="geometry" />
        </mxCell>
        <mxCell id="ff8AUM6FAH6PXLrO94gb-28" value="pam_sm_open_session" style="rounded=0;whiteSpace=wrap;html=1;" parent="ff8AUM6FAH6PXLrO94gb-16" vertex="1">
          <mxGeometry x="21.25" y="150" width="137.5" height="20" as="geometry" />
        </mxCell>
        <mxCell id="ff8AUM6FAH6PXLrO94gb-30" value="&lt;div style=&quot;font-family: Menlo, Monaco, &amp;quot;Courier New&amp;quot;, monospace; line-height: 18px;&quot;&gt;&lt;font color=&quot;#1f1f1f&quot;&gt;bus_message_new&lt;/font&gt;&lt;font style=&quot;background-color: initial;&quot; color=&quot;#1f1f1f&quot;&gt;_method&lt;/font&gt;&lt;/div&gt;&lt;div style=&quot;font-family: Menlo, Monaco, &amp;quot;Courier New&amp;quot;, monospace; line-height: 18px;&quot;&gt;&lt;font style=&quot;background-color: initial;&quot; color=&quot;#1f1f1f&quot;&gt;_call(&lt;/font&gt;&lt;span style=&quot;background-color: initial;&quot;&gt;CreateSession&lt;/span&gt;&lt;span style=&quot;background-color: initial; color: rgb(31, 31, 31);&quot;&gt;)&lt;/span&gt;&lt;/div&gt;" style="rounded=0;whiteSpace=wrap;html=1;" parent="ff8AUM6FAH6PXLrO94gb-16" vertex="1">
          <mxGeometry x="10" y="190" width="160" height="40" as="geometry" />
        </mxCell>
        <mxCell id="fsKY5Mfq22CwUaqsBOQk-80" value="" style="edgeStyle=orthogonalEdgeStyle;rounded=0;orthogonalLoop=1;jettySize=auto;html=1;" edge="1" parent="ff8AUM6FAH6PXLrO94gb-16" source="fsKY5Mfq22CwUaqsBOQk-78" target="fsKY5Mfq22CwUaqsBOQk-79">
          <mxGeometry relative="1" as="geometry" />
        </mxCell>
        <mxCell id="fsKY5Mfq22CwUaqsBOQk-78" value="pam_sm_close_session" style="rounded=0;whiteSpace=wrap;html=1;" vertex="1" parent="ff8AUM6FAH6PXLrO94gb-16">
          <mxGeometry x="210" y="35" width="150" height="20" as="geometry" />
        </mxCell>
        <mxCell id="fsKY5Mfq22CwUaqsBOQk-82" value="" style="edgeStyle=orthogonalEdgeStyle;rounded=0;orthogonalLoop=1;jettySize=auto;html=1;" edge="1" parent="ff8AUM6FAH6PXLrO94gb-16" source="fsKY5Mfq22CwUaqsBOQk-79" target="fsKY5Mfq22CwUaqsBOQk-81">
          <mxGeometry relative="1" as="geometry" />
        </mxCell>
        <mxCell id="fsKY5Mfq22CwUaqsBOQk-79" value="bus_call_method&lt;br&gt;(ReleaseSession)" style="rounded=0;whiteSpace=wrap;html=1;" vertex="1" parent="ff8AUM6FAH6PXLrO94gb-16">
          <mxGeometry x="230" y="70" width="110" height="30" as="geometry" />
        </mxCell>
        <mxCell id="fsKY5Mfq22CwUaqsBOQk-84" value="" style="edgeStyle=orthogonalEdgeStyle;rounded=0;orthogonalLoop=1;jettySize=auto;html=1;" edge="1" parent="ff8AUM6FAH6PXLrO94gb-16" source="fsKY5Mfq22CwUaqsBOQk-81" target="fsKY5Mfq22CwUaqsBOQk-83">
          <mxGeometry relative="1" as="geometry" />
        </mxCell>
        <mxCell id="fsKY5Mfq22CwUaqsBOQk-81" value="method_release_session" style="rounded=0;whiteSpace=wrap;html=1;" vertex="1" parent="ff8AUM6FAH6PXLrO94gb-16">
          <mxGeometry x="215" y="120" width="140" height="30" as="geometry" />
        </mxCell>
        <mxCell id="fsKY5Mfq22CwUaqsBOQk-86" value="" style="edgeStyle=orthogonalEdgeStyle;rounded=0;orthogonalLoop=1;jettySize=auto;html=1;" edge="1" parent="ff8AUM6FAH6PXLrO94gb-16" source="fsKY5Mfq22CwUaqsBOQk-83" target="fsKY5Mfq22CwUaqsBOQk-85">
          <mxGeometry relative="1" as="geometry" />
        </mxCell>
        <mxCell id="fsKY5Mfq22CwUaqsBOQk-83" value="session_release" style="rounded=0;whiteSpace=wrap;html=1;" vertex="1" parent="ff8AUM6FAH6PXLrO94gb-16">
          <mxGeometry x="215" y="170" width="140" height="30" as="geometry" />
        </mxCell>
        <mxCell id="fsKY5Mfq22CwUaqsBOQk-85" value="release_timeout_callback" style="rounded=0;whiteSpace=wrap;html=1;" vertex="1" parent="ff8AUM6FAH6PXLrO94gb-16">
          <mxGeometry x="215" y="220" width="140" height="30" as="geometry" />
        </mxCell>
        <mxCell id="ff8AUM6FAH6PXLrO94gb-54" value="" style="edgeStyle=orthogonalEdgeStyle;rounded=0;orthogonalLoop=1;jettySize=auto;html=1;" parent="1" source="ff8AUM6FAH6PXLrO94gb-44" target="ff8AUM6FAH6PXLrO94gb-53" edge="1">
          <mxGeometry relative="1" as="geometry" />
        </mxCell>
        <mxCell id="ff8AUM6FAH6PXLrO94gb-44" value="method_start_unit" style="rounded=0;whiteSpace=wrap;html=1;" parent="1" vertex="1">
          <mxGeometry x="345" y="360" width="120" height="30" as="geometry" />
        </mxCell>
        <mxCell id="ff8AUM6FAH6PXLrO94gb-56" style="edgeStyle=orthogonalEdgeStyle;rounded=0;orthogonalLoop=1;jettySize=auto;html=1;entryX=0.59;entryY=1.074;entryDx=0;entryDy=0;entryPerimeter=0;" parent="1" source="ff8AUM6FAH6PXLrO94gb-48" target="ff8AUM6FAH6PXLrO94gb-53" edge="1">
          <mxGeometry relative="1" as="geometry" />
        </mxCell>
        <mxCell id="ff8AUM6FAH6PXLrO94gb-48" value="mehod_start_transient_unit" style="rounded=0;whiteSpace=wrap;html=1;" parent="1" vertex="1">
          <mxGeometry x="339" y="415" width="150" height="20" as="geometry" />
        </mxCell>
        <mxCell id="ff8AUM6FAH6PXLrO94gb-50" value="" style="edgeStyle=orthogonalEdgeStyle;rounded=0;orthogonalLoop=1;jettySize=auto;html=1;entryX=0;entryY=0.5;entryDx=0;entryDy=0;" parent="1" source="ff8AUM6FAH6PXLrO94gb-38" target="ff8AUM6FAH6PXLrO94gb-44" edge="1">
          <mxGeometry relative="1" as="geometry">
            <mxPoint x="360" y="375" as="targetPoint" />
          </mxGeometry>
        </mxCell>
        <mxCell id="ff8AUM6FAH6PXLrO94gb-51" style="edgeStyle=orthogonalEdgeStyle;rounded=0;orthogonalLoop=1;jettySize=auto;html=1;exitX=0.5;exitY=1;exitDx=0;exitDy=0;" parent="1" source="ff8AUM6FAH6PXLrO94gb-44" target="ff8AUM6FAH6PXLrO94gb-44" edge="1">
          <mxGeometry relative="1" as="geometry" />
        </mxCell>
        <mxCell id="ff8AUM6FAH6PXLrO94gb-69" style="edgeStyle=orthogonalEdgeStyle;rounded=0;orthogonalLoop=1;jettySize=auto;html=1;entryX=0;entryY=0.5;entryDx=0;entryDy=0;" parent="1" source="ff8AUM6FAH6PXLrO94gb-53" target="ff8AUM6FAH6PXLrO94gb-57" edge="1">
          <mxGeometry relative="1" as="geometry">
            <Array as="points">
              <mxPoint x="500" y="270" />
              <mxPoint x="500" y="65" />
            </Array>
          </mxGeometry>
        </mxCell>
        <mxCell id="ff8AUM6FAH6PXLrO94gb-53" value="bus_unit_queue_joib" style="rounded=0;whiteSpace=wrap;html=1;" parent="1" vertex="1">
          <mxGeometry x="345" y="260" width="120" height="20" as="geometry" />
        </mxCell>
        <mxCell id="ff8AUM6FAH6PXLrO94gb-89" style="edgeStyle=orthogonalEdgeStyle;rounded=0;orthogonalLoop=1;jettySize=auto;html=1;entryX=0;entryY=0.5;entryDx=0;entryDy=0;" parent="1" source="ff8AUM6FAH6PXLrO94gb-41" target="ff8AUM6FAH6PXLrO94gb-48" edge="1">
          <mxGeometry relative="1" as="geometry" />
        </mxCell>
        <mxCell id="fsKY5Mfq22CwUaqsBOQk-87" style="edgeStyle=orthogonalEdgeStyle;rounded=0;orthogonalLoop=1;jettySize=auto;html=1;entryX=0;entryY=0.5;entryDx=0;entryDy=0;" edge="1" parent="1" source="fsKY5Mfq22CwUaqsBOQk-85" target="fsKY5Mfq22CwUaqsBOQk-69">
          <mxGeometry relative="1" as="geometry">
            <Array as="points">
              <mxPoint x="95" y="790" />
              <mxPoint x="-273" y="790" />
              <mxPoint x="-273" y="490" />
            </Array>
          </mxGeometry>
        </mxCell>
      </root>
    </mxGraphModel>
  </diagram>
</mxfile>
